<svg width="1377" height="470" viewBox="0 0 1377 470" fill="none" xmlns="http://www.w3.org/2000/svg">
<mask id="mask0_0_49" style="mask-type:alpha" maskUnits="userSpaceOnUse" x="0" y="0" width="1377" height="474">
<path d="M378.612 164.049L329.708 0H176.073V229.185H251.711V1.25069L318.19 229.185H439.034L505.514 1.25069V229.185H692.921V162.923H581.151V143.605H692.921V85.6237H581.151V66.2621H692.921V0H427.516L378.612 164.049Z" fill="white"/>
<path d="M164.529 162.185H75.0625V0H0V229.185H164.529V162.185Z" fill="white"/>
<path d="M318.19 240.734L251.711 468.669V240.734H177.357V361.657L72.9346 240.734H0V469.92H75.0625V351.28L178.799 469.92H329.733L340.509 432.217H416.718L427.494 469.92H505.879L439.035 240.734H318.19ZM359.023 367.434L378.613 298.894L398.202 367.434H359.023Z" fill="white"/>
<path d="M468.303 307.733H542.841V469.92H618.478V307.733H692.921V240.734H468.303V307.733Z" fill="white"/>
<path d="M780.105 240.734H704.468V469.92H780.105V240.734Z" fill="white"/>
<path d="M1005.72 269.749C982.387 247.95 952.024 236.896 915.469 236.896H914.506C877.944 236.896 847.581 247.95 824.259 269.749C800.886 291.599 789.035 320.391 789.035 355.327C789.035 390.263 801.053 419.068 824.754 440.912C848.389 462.709 878.586 473.759 914.506 473.759H915.469C952.028 473.759 982.389 462.759 1005.71 441.064C1029.09 419.323 1040.94 390.477 1040.94 355.327C1040.94 320.398 1029.09 291.606 1005.72 269.749ZM950.571 389.606C941.634 398.44 929.824 402.92 915.469 402.92H914.506C900.142 402.92 888.335 398.44 879.409 389.606C870.483 380.782 865.955 369.25 865.955 355.327C865.955 341.404 870.483 329.88 879.411 321.048C888.341 312.213 900.148 307.734 914.506 307.734H915.469C929.819 307.734 941.628 312.214 950.57 321.047C959.497 329.885 964.025 341.419 964.025 355.327C964.025 369.236 959.498 380.777 950.571 389.606Z" fill="white"/>
<path d="M1227.23 361.657L1122.81 240.734H1049.87V469.92H1124.93V351.28L1228.67 469.92H1301.58V240.734H1227.23V361.657Z" fill="white"/>
<path d="M1362.37 262.127C1363.05 261.054 1363.39 259.833 1363.39 258.468C1363.39 257.231 1363.2 256.163 1362.81 255.263C1362.42 254.364 1361.8 253.62 1360.94 253.034C1360.08 252.448 1358.97 252.015 1357.62 251.733C1356.26 251.45 1354.61 251.31 1352.66 251.31H1344.91V274.898H1349.57V265.658H1354.51L1359.2 274.898H1364.37L1359.13 264.682C1360.61 264.053 1361.69 263.201 1362.37 262.127H1362.37ZM1357.38 261.151C1356.55 261.749 1355.23 262.047 1353.41 262.047H1349.57V254.954H1353.18C1353.96 254.954 1354.69 255.008 1355.36 255.116C1356.03 255.226 1356.6 255.421 1357.08 255.702C1357.56 255.984 1357.93 256.353 1358.2 256.809C1358.48 257.265 1358.61 257.829 1358.61 258.501C1358.61 259.671 1358.2 260.556 1357.37 261.152L1357.38 261.151Z" fill="white"/>
<path d="M1353.17 239.656C1340.05 239.656 1329.38 250.331 1329.38 263.452C1329.38 276.573 1340.05 287.248 1353.17 287.248C1366.3 287.248 1376.97 276.573 1376.97 263.452C1376.97 250.331 1366.3 239.656 1353.17 239.656ZM1353.17 283.994C1341.85 283.994 1332.63 274.778 1332.63 263.452C1332.63 252.125 1341.85 242.91 1353.17 242.91C1364.5 242.91 1373.72 252.125 1373.72 263.452C1373.72 274.778 1364.5 283.994 1353.17 283.994Z" fill="white"/>
</mask>
<g mask="url(#mask0_0_49)">
<rect x="-10.6855" y="-51.9902" width="1419.66" height="522" fill="#1D1D1D"/>
</g>
</svg>
