<svg width="579" height="91" viewBox="0 0 579 91" fill="none" xmlns="http://www.w3.org/2000/svg">
<path fill-rule="evenodd" clip-rule="evenodd" d="M4.0097 16.9975V33.8866L20.9892 57.6655C30.3276 70.7432 38.378 81.5811 38.8802 81.7486C39.3814 81.9172 43.8694 76.0834 48.8516 68.7846C60.2638 52.0701 60.5673 51.6891 61.8473 52.4789C62.4294 52.8389 67.7042 59.8365 73.568 68.0297C79.4319 76.223 84.3352 82.8177 84.463 82.684C84.5908 82.5504 92.3756 71.4981 101.763 58.1243L118.83 33.8078V16.9885V0.169247H106.849H94.8677V11.9595V23.7497L90.2829 30.9069C87.7618 34.8429 85.1499 38.064 84.48 38.064C83.2858 38.064 81.2949 35.7045 76.3647 28.4477C74.0732 25.0761 73.9005 23.9562 73.9005 12.495V0.169247H61.42H48.9395V12.7573V25.3453L44.3956 31.7046C41.8975 35.2019 39.4803 38.064 39.025 38.064C38.5687 38.064 36.2334 35.4832 33.8331 32.3299L29.4699 26.5958L28.9707 13.6319L28.4715 0.667862L16.2406 0.387634L4.0097 0.107422V16.9975ZM131.478 0.834406C131.111 1.19939 130.812 11.2704 130.812 23.2142V44.9299L126.568 45.2371L122.325 45.5432L122.044 57.7593L121.764 69.9753H126.288H130.812V74.4629V78.9504H143.235H155.658L155.965 74.7122L156.272 70.474H166.256H176.241L176.547 74.7122L176.855 78.9504H188.778H200.702V39.5598V0.169247H166.423C147.568 0.169247 131.843 0.468423 131.478 0.834406ZM211.69 20.3632L211.694 40.5571L214.686 43.7442C218.425 47.7281 218.424 48.9418 214.681 52.5238L211.685 55.3898V67.1701V78.9504H223.666H235.648V72.983C235.648 67.8064 236.032 66.5858 238.544 63.7776C241.27 60.73 241.812 60.5485 247.78 60.6792C251.266 60.7549 254.681 60.8587 255.367 60.9085C256.267 60.9743 256.615 63.5093 256.615 69.9753V78.9504H269.096H281.576V39.5598V0.169247H246.631H211.685L211.69 20.3632ZM291.56 13.578V26.9868L306.975 39.7553C315.454 46.7778 322.418 52.8609 322.451 53.2717C322.485 53.6826 315.548 54.0197 307.036 54.0197H291.56V66.485V78.9504H326.506H361.451V66.5927V54.2351L352.224 45.9002C347.148 41.316 342.492 37.1166 341.877 36.5681C335.554 30.9308 331.498 26.8182 331.498 26.0424C331.498 25.4929 337.737 25.1 346.475 25.1H361.451V12.6346V0.169247H326.506H291.56V13.578ZM380.089 0.834406C379.723 1.19939 379.423 11.2704 379.423 23.2142V44.9299L375.18 45.2371L370.936 45.5432L370.656 57.7593L370.375 69.9753H374.899H379.423V74.4629V78.9504H391.904H404.384V74.4629V69.9753H414.369C421.618 69.9753 424.39 70.3164 424.488 71.2219C424.562 71.908 424.673 73.8147 424.737 75.4601L424.852 78.4518L437.083 78.732L449.314 79.0122V39.5907V0.169247H415.034C396.18 0.169247 380.454 0.468423 380.089 0.834406ZM458.3 16.9097V33.7111L475.363 57.5768C484.748 70.7033 492.918 81.4435 493.519 81.4435C494.12 81.4435 499.134 74.8378 504.661 66.7653C510.189 58.6917 515.244 52.1848 515.895 52.3054C516.546 52.4251 522.013 59.3808 528.046 67.7615L539.014 83.0002L548.828 68.9582C554.227 61.2356 562.117 49.8911 566.362 43.7482L574.082 32.5792L574.1 16.3742L574.119 0.169247H561.638H549.158V12.3963V24.6223L544.644 31.3437C542.161 35.0394 539.578 38.056 538.903 38.045C538.228 38.0351 535.541 35.0503 532.933 31.4135L528.191 24.7998V12.4541V0.107422L516.088 0.387634L503.983 0.667862L504.156 12.2098L504.329 23.7517L499.535 30.8969C496.9 34.827 494.268 38.047 493.688 38.053C493.106 38.059 490.537 35.2149 487.978 31.7336L483.325 25.4032L483.043 13.0355L482.762 0.667862L470.531 0.387634L458.3 0.107422V16.9097ZM156.471 25.7312C156.087 26.1152 155.773 30.6336 155.773 35.7723V45.1144L166.007 44.8302L176.241 44.546V35.0723V25.5986L166.705 25.3154C161.462 25.1598 156.857 25.3473 156.471 25.7312ZM236.608 26.6417C235.546 27.9202 235.67 28.6452 237.331 30.8799C240.084 34.5837 243.305 36.0376 248.795 36.0546C255.787 36.0765 256.615 35.4981 256.615 30.5848C256.615 25.3882 256.04 25.1 245.673 25.1C239.869 25.1 237.564 25.4919 236.608 26.6417ZM405.083 25.7312C404.699 26.1152 404.384 30.6336 404.384 35.7723V45.1144L414.618 44.8302L424.852 44.546V35.0723V25.5986L415.317 25.3154C410.073 25.1598 405.468 25.3473 405.083 25.7312Z" fill="white"/>
</svg>
