<svg width="44" height="44" viewBox="0 0 44 44" fill="none" xmlns="http://www.w3.org/2000/svg">
<path d="M21.7836 43.5643C27.6033 43.5643 33.0729 41.2981 37.187 37.184C41.3011 33.0699 43.5673 27.6003 43.5673 21.7807C43.5673 15.961 41.3011 10.4914 37.187 6.37729C33.0699 2.26616 27.6003 0 21.7836 0C15.9669 0 10.4943 2.26616 6.38025 6.38025C2.26616 10.4943 0 15.964 0 21.7836C0 27.6033 2.26616 33.0729 6.38025 37.187C10.4943 41.3011 15.964 43.5673 21.7836 43.5673V43.5643ZM15.8305 17.4115C15.8305 14.8012 17.9513 12.5944 20.4637 12.5944C21.2319 12.5944 21.8756 12.7872 22.4659 13.1936V12.5944H24.8952V16.4208H22.5192L22.4036 16.2576C21.9201 15.5843 21.3417 15.258 20.6327 15.258C19.4641 15.258 18.5475 16.2042 18.5475 17.4115C18.5475 18.6187 19.4848 19.5649 20.6832 19.5649C21.4307 19.5649 22.0209 19.2268 22.3413 18.6128L22.451 18.4051H25.3668L25.1947 18.9183C24.7706 20.1789 23.9104 21.1607 22.8099 21.7184L24.9604 23.8273L26.5117 20.4607H29.8071V22.9197H28.2321L26.8232 25.7375L29.5699 28.4842L27.7071 30.3233L25.1769 27.8406C24.2693 28.9855 23.6731 29.4868 22.7654 29.8932C22.0476 30.2046 21.2379 30.3707 20.4251 30.3707C17.5835 30.3707 15.3144 28.3656 15.3144 25.8087C15.3144 24.5422 15.9343 23.3023 16.9606 22.4421C17.3077 22.1366 17.4649 22.0209 18.1619 21.5434C16.7678 20.701 15.8305 19.1645 15.8305 17.4144V17.4115Z" fill="white"/>
<path d="M20.5645 27.8386C21.7094 27.8386 22.451 27.3136 23.2637 25.9284L20.3034 23.0156C18.847 23.7572 18.2271 24.5195 18.2271 25.5695C18.2271 26.8361 19.2771 27.8386 20.5674 27.8386H20.5645Z" fill="white"/>
</svg>
